<?xml version="1.0" encoding="UTF-8"?>
<svg id="Calque_1" data-name="Calque 1" xmlns="http://www.w3.org/2000/svg" xmlns:xlink="http://www.w3.org/1999/xlink" viewBox="0 0 240.94 155.91">
  <defs>
    <style>
      .cls-1 {
        fill: none;
      }

      .cls-2 {
        clip-path: url(#clippath-1);
      }

      .cls-3 {
        isolation: isolate;
      }

      .cls-4 {
        fill: #28e028;
      }

      .cls-5 {
        fill: #0daed3;
      }

      .cls-6 {
        clip-path: url(#clippath);
      }

      .cls-7 {
        fill: #c82e30;
      }
    </style>
    <clipPath id="clippath">
      <path class="cls-1" d="M80.27,72.24c-.03-1.82.18-5.3,1.19-9.14,1.21-4.62,3.13-7.93,3.44-8.46.82-1.41,2.05-3.2,3.02-4.52.59-.8,1.46-1.82,2.17-2.52q2.5-2.47,4.7-4.18c1.33-1.03,2.68-1.82,4.1-2.64,1.07-.62,2.57-1.34,3.72-1.79,1.6-.62,2.66-1.03,5.16-1.67,1.89-.48,4.95-1.05,8.78-1.02,4.56.03,7.94.93,9.56,1.37.43.12,2.02.57,4.24,1.5,1.14.48,2.6,1.25,3.69,1.82,8.79,4.99,14.58,14.86,14.56,26.96-.04,19.1-14.54,36.53-32.39,38.93,17.85-2.4,32.35-19.83,32.39-38.93.02-12.1-5.77-21.97-14.56-26.96.85.5,1.99,1.17,2.78,1.76.6.44,1.41,1.01,1.99,1.48.72.59,1.69,1.38,2.35,2.05.55.57,1.32,1.31,1.85,1.9.62.69,1.41,1.64,1.97,2.37,1.75,2.3,2.83,4.3,3.11,4.86.57,1.11,1.43,2.77,2.31,5.36.55,1.61,1.06,3.84,1.38,5.51.47,2.38.68,6.63.32,9.65-.26,2.12-.41,3.4-1.1,5.92q-.56,2.03-2.05,5.58c-.65,1.56-1.32,2.61-2.94,5.16-.55.86-1.4,1.93-2.05,2.72-3.06,3.65-5.76,5.67-8.54,7.48-1.25.81-4.66,2.84-9.39,4.17-5.25,1.48-10.65,1.75-16.05.8-3.93-.69-6.83-1.91-7.79-2.31-3.28-1.38-6.07-3.26-6.87-3.86-.76-.58-1.8-1.32-2.51-1.97-.58-.53-1.37-1.22-1.92-1.77-.66-.66-1.5-1.57-2.11-2.28-1.75-2.05-3.33-4.43-4.7-7.09-.42-.82-.95-1.92-1.26-2.79-.57-1.59-1.29-3.74-1.68-5.39-.36-1.51-.61-3.58-.78-5.12-.1-.88-.1-2.06-.11-2.94Z"/>
    </clipPath>
    <clipPath id="clippath-1">
      <path class="cls-1" d="M98.51,103.62c-.62-.36-1.46-.85-2.05-1.26-.95-.65-2.18-1.56-3.08-2.27-1.23-.98-2.7-2.48-3.79-3.61-.72-.74-1.6-1.81-2.19-2.66q-2.05-2.96-3.15-5.03c-2.24-4.23-3.09-8.44-3.09-8.48-.34-1.7-.7-3.99-.82-5.72-.11-1.58-.14-3.71.05-5.29.12-.94.2-2.21.4-3.13.18-.84.38-1.96.6-2.79.23-.9.56-2.1.9-2.97.31-.78.68-1.83,1.03-2.6.38-.85.92-1.96,1.37-2.78,1.54-2.81,3.22-4.89,3.24-4.91,1.01-1.22,2.4-2.82,3.55-3.9.24-.22,2.36-2.2,4.36-3.54,1.7-1.14,5.24-3.51,10.77-5.05,4.61-1.29,9.33-1.65,14.03-1.07,6.88.84,11.46,3.35,13.42,4.43-5.08-2.89-11.16-4.14-17.7-3.27,6.54-.88,12.62.38,17.7,3.27,1.25.77,2.93,1.79,4.08,2.7,1.05.83,2.8,2.21,4.46,4.03,1.27,1.4,4.24,4.67,6.58,9.9.38.85.84,2.01,1.15,2.89.28.8.57,1.89.82,2.7.27.9.53,2.13.65,3.06.11.86.29,2.01.36,2.87.08.96.13,2.24.13,3.2,0,1.75-.22,4.08-.48,5.82-.15,1.03-.43,2.41-.73,3.41-.82,2.71-1.2,3.95-1.98,5.54-.37.74-.83,1.75-1.24,2.47-.45.8-1.08,1.85-1.59,2.62-1.38,2.07-2.71,3.62-3.59,4.55-1.28,1.36-2.44,2.49-4.26,3.91-1.93,1.51-3.01,2.13-4.81,3.17-1.37.79-3.71,1.78-4.08,1.93-1.09.42-2.75,1.05-5.21,1.62-4.36,1.01-8.83,1.18-13.28.53-5.93-.87-10.39-3.07-12.52-4.31Z"/>
    </clipPath>
  </defs>
  <g>
    <path class="cls-7" d="M20.74,60.37c-.08-.54,0-1,.23-1.37.23-.37.64-.6,1.21-.68l25.09-3.88c2.67-.41,5.24-.3,7.73.34,2.48.64,4.73,1.68,6.72,3.12,2,1.44,3.67,3.23,5.02,5.37,1.35,2.14,2.23,4.5,2.63,7.09.27,1.76.29,3.47.06,5.14-.23,1.67-.67,3.26-1.31,4.77-.64,1.52-1.46,2.93-2.47,4.24-1,1.31-2.14,2.47-3.42,3.49l12.89,17.25c.24.33.54.73.9,1.17.36.45.57.85.63,1.22.06.41-.02.75-.26,1.01-.24.26-.59.43-1.06.5l-13.32,2.06c-.44.07-.85,0-1.24-.21-.39-.2-.67-.52-.84-.94l-12.18-16.29-6.29.97,2.71,17.51c.17,1.11-.34,1.76-1.53,1.95l-11.53,1.78c-.52.08-.95,0-1.31-.22s-.57-.62-.66-1.19l-8.38-54.21ZM53.81,72.91c-.12-.78-.38-1.53-.79-2.26-.41-.73-.92-1.38-1.53-1.95-.62-.57-1.32-1.01-2.12-1.34-.79-.33-1.64-.49-2.54-.48-.73.06-1.42.12-2.06.18-.64.06-1.34.15-2.09.26l-5.36.83,2.2,14.25,7.15-1.1c.47-.07.88-.15,1.24-.23.36-.08.75-.18,1.19-.3.89-.24,1.66-.64,2.32-1.17.66-.54,1.19-1.16,1.58-1.87.39-.71.66-1.48.8-2.31.14-.83.14-1.66.01-2.49Z"/>
    <path class="cls-7" d="M164.62,54.98c.12-.46.36-.83.72-1.13.36-.29.82-.4,1.4-.32l13.46,1.93c.96.14,1.51.72,1.65,1.75l5.51,36.84,15.73-33.79c.5-.93,1.24-1.33,2.2-1.19l13.3,1.91c.47.07.86.29,1.19.67.33.38.48.82.47,1.32-.4,9.26-.78,18.45-1.12,27.57-.34,9.12-.72,18.31-1.12,27.57l-.03.19c-.15,1.01-.79,1.44-1.93,1.27l-11.01-1.58c-1.19-.17-1.73-.83-1.62-1.98l.93-30.55-13.09,29c-.09.25-.32.54-.7.85-.38.32-.72.45-1.03.41l-10.23-1.47c-.31-.04-.62-.27-.92-.67-.3-.4-.44-.74-.43-1.03l-4.42-31.44-7.69,29.5c-.22,1.13-.93,1.61-2.15,1.44l-11.01-1.58c-1.12-.16-1.59-.81-1.43-1.95l13.36-53.54Z"/>
  </g>
  <g>
    <circle class="cls-5" cx="116.33" cy="72.3" r="36"/>
    <g class="cls-3">
      <g class="cls-3">
        <g class="cls-6">
          <g>
            <path class="cls-4" d="M149.92,59.46c-.06-.15-.11-.29-.17-.44.09.22.2.52.29.75l-.04-.1c-.02-.06-.06-.15-.08-.21M146.61,53.14c-.47-.76-1.35-2.17-1.9-2.93,0,0,0,.01.01.02,2.09,2.91,2.17,3.02,3.2,4.89l-.05-.09c-1.16-2.07-2.19-3.48-2.63-4.09.56.79.89,1.33,1.36,2.2M143.25,49.57c-.79-1.16-1.65-2.26-2.58-3.28l.58.53c1.6,1.55,1.97,2.07,2,2.75M140.52,46.13c-.86-.93-1.79-1.79-2.76-2.59l.21.1c.56.33,1.48,1.08,2.74,2.22l1.83,1.81h0s-1.48-1.35-1.5-1.37c-.15-.11-.35-.09-.5-.18"/>
            <g>
              <path class="cls-4" d="M80.52,76.59c-.41-3.56-.07-5.73.17-6.71.42-1.71,1.43-3.23,1.67-5,0-.02.64-2.8,2.55-6.22-.78,1.79-1.22,2.95-1.78,4.8.04.04.09.1.12.14q1.64-4.26,2.13-5.33c.62-1.36,1.66-2.48,2.3-3.84.56-1.19.81-2.51,1.44-3.67.52-.96,2.79-3.34,2.89-3.44-.24.38-.3.49-.51.85,1.08-.9,1.78-2.19,3.03-2.91.32-.18,1.28-.74,2.95-.55.12,1.21,1.66.52,2.29,1.17.09-.09.21-.22.29-.31-.55-.21-.88-.33-1.34-.52q2.32-.92,2.32-1.33-.22-.17-1.29-.44c.07-.02.15-.03.22-.05.07-.01.14-.03.2-.04.06-.01.13-.03.19-.04.06-.01.12-.02.18-.04.06-.01.11-.02.17-.03s.11-.02.16-.03.1-.02.16-.03.1-.02.16-.03c.07-.08.17-.18.24-.26-.42-.04-.84-.08-1.27-.11.19-.12.39-.24.59-.36-1.93-1.25-5.6.91-5.64.93-.97.75-2.24,1.78-3.16,2.58-2.4,2.37-2.6,2.56-4.04,4.36-2.06,2.84-2.18,3.01-3.24,4.91-1.62,3.25-1.69,3.38-2.4,5.38l-.68,2.16c.04-.12.11-.29.16-.41.02.84-.88,6.08-1.11,6.44-.05-.2-.11-.45-.02-1.44-.09.62-.23,1.55-.35,4.11v.97s0,1.37,0,1.37c.03.68.04.96.1,1.68l.15,1.47c0-.05-.01-.12-.02-.17"/>
              <path class="cls-4" d="M84.09,88.46c-1.03-2.05-1.9-4.33-2.59-6.79.4,1.29.96,3.01,1.45,4.28.43.94.99,2.2,1.46,3.12-.09-.18-.22-.43-.32-.61"/>
              <path class="cls-4" d="M105.01,106.35q-.08-.1-.83-.36c-6.32-2.21-10.01-5.14-12.24-7.15l1.44,1.25c2.42,1.86,2.79,2.14,5.13,3.53l.23.13c3.26,1.8,6.25,2.61,6.27,2.6"/>
            </g>
            <path class="cls-4" d="M142.67,90.64c-.1.16-2.9,5.92-2.91,5.97-.21.49-.2.62-.16,1.08q.18.03.62-.38c.26-.25,1.86-1.1,1.87-1.1.02.02.05.06.07.08-.16.49-.96,1.66-2.2,2.97,4.57-3.48,7.76-9.14,8.22-11.72-.04.05-.1.11-.14.16.02-.58.49-1.02.49-1.61,0-.15-.16-.44-.48-.86q-.51,1.79-1.67,2.54c.6-1.52.93-2.51,1.34-4.09-.03-.03-.06-.07-.09-.1-1.06,2.07-1.95,3.59-3.12,4.77-.56.57-1.19,1.21-1.85,2.3"/>
            <path class="cls-4" d="M146.4,82.06c-.02.13-.05.26-.07.39.25-.15.26-.15.61-.4.25-.17.58-.41.69-.4.14.02.15.02.24.58.05.33.09.53.19.63.13.13.34-.07.45-.18.03-.02.04-.01.09.03.01,0,.03,0,.04-.01.68-1.34.75-1.4,1.27-1.84q.67-.57.68-.6s.04-.69-.09-.95c-.01-.01-.03-.03-.05-.04-.15.05-.27.31-.59,1.19.05-.91-.02-1.29-.29-1.43-.14-.07-1.17.26-1.43.49-.04.04-.18.18-.39.47-.28.41-.51.85-.78,1.27-.26.39-.38.54-.42.58-.05.06-.14.14-.16.22"/>
            <path class="cls-4" d="M151.81,78c-.38,2.42-.89,4.06-1.52,6.13.48-1.58,1.05-3.72,1.41-5.34l.21-1.29v-.04c-.02.18-.07.36-.1.54"/>
            <path class="cls-4" d="M146.78,53.93c.37.44.65.8.65.8.52.98.78,2.07,1.27,3.07.33.68.82,1.26,1.16,1.94.46.91.51,1.08.66,1.6-.55-2.24-3-6.64-3.73-7.94-.02.14-.05.22-.15.36.04.05.1.12.15.17"/>
            <path class="cls-4" d="M136.28,96.72c-.12.46-.22.74-.35,1.1,0,0,0,.01,0,.02,0,.03.03.04.04.05.06.02.12.01.18.03.07-.05.15-.11.22-.16.03-.02.08-.06.11-.08s.09-.04.11-.08c0,0,.13-.36.18-1.34-.16.16-.31.31-.47.47"/>
            <path class="cls-4" d="M150.22,83.55c-.01.07-.03.13-.05.2.15-.3.24-.49.37-.78-.15.51-.26.85-.44,1.36,0,0,.01,0,.02,0,.08-.18.46-1.17.9-2.76,0-.09-.02-.16-.04-.26-.22.74-.46,1.44-.7,2.08-.02.05-.05.11-.06.16"/>
            <path class="cls-4" d="M149.26,86.73s-.03.09-.05.13l.27-.62c-.07.16-.17.32-.22.49"/>
            <path class="cls-4" d="M152.19,72.37c0,.16.01.18.02.2.02-.03.03-.06.04-.1.02.04.03.08,0,.95.03-.86.04-1.63,0-2.49l-.07-1.28c.12,2.11.08,2.31.01,2.62,0,.03-.01.08-.01.11"/>
            <path class="cls-4" d="M151.95,74.18c-.08,1.29-.21,2.28-.26,2.6.15-.12.32-1.45.32-1.47,0,0,0-.48-.06-1.24,0,.03,0,.07,0,.1"/>
            <path class="cls-4" d="M152.01,75.34c0,.21,0,.42,0,.62.01-.27.02-.53.03-.8,0,.06-.02.12-.02.18"/>
          </g>
        </g>
      </g>
      <g class="cls-3">
        <g class="cls-2">
          <g>
            <polyline class="cls-4" points="149.07 86.67 149.07 86.67 149.07 86.66 149.07 86.66 149.07 86.66 149.07 86.65 149.08 86.65 149.08 86.65 149.08 86.64 149.08 86.64 149.08 86.64 149.08 86.64 149.08 86.63 149.08 86.63 149.09 86.63 149.09 86.62 149.09 86.62 149.09 86.63 149.07 86.67"/>
            <path class="cls-4" d="M125.23,67.82q-.24,2.85-.65,3.01c-.08.03-2.34.38-2.89.33-.9-.09-1.45-.31-2.66-.87-1.08-.5-1.39.04-1.84,1.39-2.46-1.05-3.8-1.68-3.98-1.86-.28-.3-.31-1.32-.35-2.74-2.89.45-4.74.69-7.64.98-.06-.2-.12-.4-.18-.61,0,0,0,0,0,0h0s0,0,0,0h0s0,0,0,0h0s0,0,0,0h0c1.54-.08,1.95-.17,3.33-2.16.43-.62,1.01-1.47,1.56-1.72.79-.37,1.66-.37,2.49-.57,1.18,1.29,1.95,2.1,3.33,3.46.16-.45.31-.9.47-1.35-1.51-1.05-1.98-1.56-2.41-3.09,2.77,2.1,3.68,3.33,4.43,5.99.47-.38.93-.77,1.39-1.16-.28-.39-.56-.77-.84-1.16.37-.19.75-.39,1.12-.59.72,2.02,1.67,3.72,5.34,2.38,0,.11-.02.25-.03.35M133.25,65.55c.03.32,0,.64.02.96-.61-.19-1.23-.38-1.84-.57.27-1.89-1.51-2.75-2.11-4.2.66-.46,1.07-.75,1.76-1.28.11.13.22.26.32.39-.17.4-.27.63-.47,1.04,1.96,2.74,2.26,3.16,2.31,3.67M127.28,64.15c-.33.15-.6.41-.98.45-.05,0-.1,0-.14,0-1.8-.33-2.8-.47-4.16,0-.1.04-.19.05-.28.06,0,0,0,0,0,0-.14,0-.85-.04-.55-1.17.27-.76.59-1.5.87-2.25.53.52.96.94,1.48,1.43.04-.15.08-.29.12-.44q2.74.93,2.82.97t.83.96s0,0,0,0M118.49,54.98c-.03.09-.04.18-.08.26-.7-.23-.97-.23-1.08.72-.06.55-.78.93-1.78.94-.48-.02-.75-.09-1.05-.27.85-.98,1.49-1.75,2.2-2.66-.87-1-.74-1.62.48-2.21,0,.64-.02,1.28-.03,1.92.29.09.58.18.88.27-.14.24-.28.47-.43.71.31.09.61.17.92.25,0,.02-.01.05-.02.07M140.7,45.86c-.7-.6-1.62-1.41-2.34-1.98h0q-.13,0-1.07.1c.16.15.38.34.54.49-.02.09-.05.21-.07.3-.11.04-.25.09-.36.13l-5.97-.78c-.16,1.11-1.44,1.62-1.51,2.79-.19-.06-.44-.18-.6-.3-.01.09-.03.22-.04.31-.35-.08-.68-.22-1.01-.33q-.05.26.19,1.67c-.6-.07-1.2-.14-1.8-.22q.25.23.91.39c-1.21.45-2.02.71-3.48,1.11-.09-.08-.2-.18-.29-.26-.33.33-.4.88-.9,1.08-1.02-2.08-5.4-2.23-5.44-2.22-3.09.74-5.47,4.82-5.49,4.86-.01.02-.76,2.31,1.36,1.39.12-.05.29-.14.41-.2.18.64.25.85.45,1.5-.08.06-.19.13-.27.18-.2-.34-.39-.67-.58-1.01q-3.08,3.52-3.72,3.74v-.02c-.94.59-1.6.99-2.61,1.59,1.09,1.28,1.12,1.53.34,2.93-5.55-1-3.5,3.49-3.47,3.53q1.02,1.87-1.86,5.01c-4.95,5.39-4.46,9.1-3.18,11.26,2.94,4.96,4.59,5,5.38,5.02,1.52.04,2.92-.76,4.45-.65.57.04.72.27,1.19,1.04.52.84,2.53.42,2.21,1.69-.34,1.34-.43,1.7.36,2.81,1.41,1.99,2.19,3.09,1.64,4.67q-.73,2.1-.25,2.86.44.69,1.43,2.79,1.06,2.22,1.23,2.25c3.79.48,6.95-3.78,6.96-3.83.74-2.29,3.65-3.27,3.63-6.02,0-.71.09-1.4.29-2.03,1.34-4.23,5.99-6.26,7.08-10.66-1.19,0-2.22.96-3.47.56-.77-.25-1.16-1.49-1.57-2.18-1.58-2.46-2.91-5.06-4.5-7.52.02-.1.05-.23.07-.33.16-.1.43-.16.62-.15q5.4,9.07,5.59,9.34c5.61-3.58,5.9-4.05,6.89-7.27-.52-.73-1.36-1.16-1.86-1.91,0,.03-1.4,2.2-2.96-.09-.42-.62-.78-1.28-1.18-1.91.06-.08.14-.18.19-.25,1.51-.05,2.52,1.27,3.96,1.42.68.07,1.1.74,1.79.78.86.06,1.56-.67,2.45-.48.1.02.22.06.31.1,1.15.43,1.66,1.56,2.5,2.32,0,0,1.02,2.75,1.59,7.31,2.19-3.27.96-7.79,3.95-10.77.49,1.23.75,2.01,1.08,3.24.1-.18.22-.42.31-.61.3,3.16.25,5.12-.19,8.08-.15-.55-.2-.7-.45-1.28-.07,1.79-.39,3.56-.47,5.35q.39-.95,1.83-11.04c.22,1.05.27,1.31.36,2.32.73-2.65-.35-5.38.31-8.04.06.7.07.89.11,1.56.84-2.85.17-5.02-2.04-12.21-.1,0-.22,0-.32,0-.22-.55-.38-1.13-.57-1.69.17.34.33.67.48,1.02-.05-.21-.12-.49-.17-.71.45.7,1.14,2.45,1.15,2.46-.13-.39-.33-.89-.47-1.27l-.07-.16c-.6-1.43-2.01-4.79-4.97-8.64v-.02s-.05-.04-.05-.04c-1.43-1.34-2.53-2.98-3.97-4.31"/>
            <polyline class="cls-4" points="95.69 44.15 95.69 44.15 95.69 44.15 95.69 44.15"/>
            <g>
              <path class="cls-4" d="M80.27,72.97l.02.64-.02-1.37v-.97c0,.26,0,1.18,0,1.7"/>
              <path class="cls-4" d="M93.07,92.91q.32,2.79.58,3.36,1.08,2.3,1.08,2.35-.19.18-.54.19s-.08.1-.11.14c.35.91,2.45,3.09,2.47,3.11-.1-.02-.23-.05-.32-.09.44.33,2.37,1.69,2.52,1.78l-.23-.13c-2.46-1.51-2.97-1.82-5.13-3.53l-1.44-1.25c-2.78-2.57-5.82-6.5-7.54-9.77-.45-.93-1.06-2.17-1.46-3.12-.46-1.27-1.06-2.98-1.45-4.28-.5-2-.95-5.2-.97-5.34.04.53.07.8.15,1.38-.04-.28-.1-.66-.13-.95l-.15-1.47c.04.44.05.46.11.76t0,.01h0s0,0,0,0h0s0,0,0,0h0s0,0,0,0h0c.05.24.1.47.15.71.04-.55.06-.65.14-.95.04-.02.09-.04.14-.06q3.5,6.14,3.82,6.51c1.11,1.27,1.23,3.06,2.31,4.34,1.51,1.79,3.76,2.74,5.21,4.59.35.45.76,1.37.8,1.71"/>
              <path class="cls-4" d="M111.21,43.49c-.79.36-1.47.64-1.83.79-.52,1.76-3.41,3.76-3.44,3.77-1.61.93-3.51.9-5.21,1.51-1.17.42-1.85,1.56-3.01,2-.34.13-.67.1-.8-.06-.81-.98,1.28-3.1,2.8-4.66,2.13-2.17,2-2.24,1.03-2.77-.07-.81.39-.85,2.09-1.02.04-.09.05-.23.02-.33-.23-.03-1.04,0-3.4.93-2.6,1.01-1.77-.34-1.76-.36q-2.63,1.71-3.44,2.62c1.12-.52,1.77-1.84,3.17-1.9.93-.04.31,1.73.3,1.75q-.96,2.31-1.97,2.53s-.09-.07-.13-.1c.02-.16.03-.28.3-.73-.48.43-.65,1.09-1.16,1.49,0,0-.64.28-1.07.24-.3-.54-.11-1.13-.18-1.69q1.9-.53,2.11-.76-.22-.06-.58-.04.26-.29,1.06-.91s-2.19-.05-3.22,2.04c-.02-.03-.05-.06-.07-.09-.02-.03-.04-.06-.06-.09-.02-.03-.04-.05-.05-.08-.02-.03-.03-.05-.05-.08s-.03-.05-.04-.07-.02-.05-.04-.07-.02-.05-.03-.07-.02-.04-.03-.07c.09-.08.21-.19.3-.28-.02,0-1.74.33-2.94,1.71-.14.16-.35.43-.45.63l-1.73,3.55c1.82-1.41,3.27-3.22,5.07-4.65q-.02.84-.72,2.47c.06.03.14.06.2.08.28-.12.54-.27.81-.4-.04.33-2.63,7.4-2.65,7.42-.26-.08-.36-.11-1.22-1.11.53-.51.93-.87,1.52-1.4q-.69.19-2.31-.2.3.42-.6,1.51c.3.31.45.46.86.81-.88.35-1.37.56-2.1.88.19-.53.27-.74.46-1.22q-4.23,3.53-6.08,9.39c.18-1.29.44-2.56.64-3.84l.68-2.16c1.34-3.39,1.39-3.52,2.4-5.38,1.84-3.08,1.92-3.2,3.24-4.91,2.19-2.59,2.36-2.8,4.04-4.36.93-.8,2.19-1.84,3.16-2.58-.25.19-.32.25-.56.48-.06.08-.02.05.01.03s.07-.05.11-.08.08-.05.12-.08.08-.06.12-.08.08-.06.12-.08.08-.06.12-.08.08-.05.12-.08.08-.05.12-.08c.48-.46.53-.51,1.08-.74-.04.09-.11.2-.18.28-.44.45-.78.98-1.26,1.4-.39.34-.97.41-1.24.91.3.01.46.02,1.93-.83,0,0,0,0,0,0,.54-.28.91-.46,1.51-.74-.03-.48.05-.56.67-.96,0,.02,0,.04,0,.06s0,.04,0,.06,0,.04,0,.06,0,.04,0,.07,0,.05,0,.07,0,.05.01.07,0,.05.02.07.01.05.02.07c.51-.31.78-.47,1.36-.79-.37.37-.46.47-.79.86.62-.3.84-1.16,1.65-1.21l9.5.52c.39.12.55.2.59.81.34.2.72.01,1.06.13-.04.06-.08.15-.13.2"/>
            </g>
            <path class="cls-4" d="M151.69,78.8c-.36,1.62-.92,3.75-1.41,5.34-.01.02-.03.06-.05.08,0-.07.36-1.67.79-2.89.16-.45.56-1.72.88-3.81l-.21,1.29"/>
            <path class="cls-4" d="M131.13,96.63c-.44,1.24-.55,1.57-2.09,3.42q-1.14,1.37-2.43,2.03c-.07-.2-.29-.34-.2-.59,0-.03.03-.06.04-.08.07-.14.21-.29.28-.43.32-.62.5-1.31.92-1.88.31-.41.54-.61.65-.7.39-.3.84-.5,1.25-.76q.14-.09,1.27-1.18c.13-.02.26-.03.39-.05-.02.07-.06.16-.08.22"/>
            <path class="cls-4" d="M109.47,58.59c-.2.04-1.23.22-2.42.41.35-.85.71-1.7,1.07-2.55-.88.63-1.64,1.16-2.6,1.81-.11-.19-.22-.38-.33-.57.85-.99,1.7-1.99,2.55-2.98-.06-.08-.13-.15-.19-.23.46-.15.91-.3,1.37-.45.1.65.2,1.21.46,2.44q.21.98.25,2.1s-.1.02-.14.03"/>
            <path class="cls-4" d="M109.66,58.55s-.03.02-.05.03v-.02s.03,0,.05,0c0,0,0,0,0,0"/>
            <path class="cls-4" d="M109.61,58.6l.05-.05h0s-.03.02-.05.03c0,0,0,.01,0,.02h0"/>
            <path class="cls-4" d="M117.54,44.37c-.25.05-.5.1-.74.15.15.18.31.37.47.55,0,.07-.02.14-.02.2-.28-.12-.56-.24-.83-.37-.25.34-.44.58-.57.73-.41-.49-.64-.78-.97-1.25.03-.07.05-.14.08-.22.94-.05,1.72-.12,2.61-.21.02.13.05.26.07.4-.03,0-.07.01-.1.02"/>
            <path class="cls-4" d="M126.26,45.24c-.49.82-1.12,1.44-1.39,1.71.46.4.92.81,1.37,1.21-.65-.16-1.13-.28-1.81-.46-.12-.83-.14-1.44.19-1.88q.22-.29,1.7-.68s-.04.07-.06.11"/>
            <path class="cls-4" d="M97.16,42.71c-.2.06-.8.24-.6-.08.15-.26.71-.67.71-.67,0,0,.35-.14.48-.11,0,0,0,.02.01.03,0,.01-.01.03-.02.04-.12.18-.33.27-.45.45-.06.1.03.21-.02.3-.04.01-.08.03-.12.04"/>
            <path class="cls-4" d="M107.02,50.52c-1.65,1.2-2.6.9-2.41-.76.23.29.59.26,1.15.17.41-.06.55-.08.79-.06.33.06.47.18.62.53-.04.03-.1.08-.15.11"/>
            <path class="cls-4" d="M80.87,70.07c-.02.12-.04.23-.05.35-.27-1.51-.24-3.06-.1-3.18t.05.09c.02.12.13,2.62.11,2.74"/>
            <path class="cls-4" d="M149.21,86.85c-.06.13-.16.3-.32.42,0-.01,0-.04,0-.05.05-.18.12-.37.17-.55.07,0,.16-.12.34-.4.03-.04.05-.08.08-.12.01.03-.01.05-.02.08l-.27.62"/>
            <path class="cls-4" d="M149.08,86.67s0,0,0,0c0-.01.01-.03.02-.04,0,.01,0,.03-.01.04,0,0,0,0,0,0"/>
            <path class="cls-4" d="M152.26,70.93c-.02-.64-.06-1.08-.08-1.34,0,.02,0,.04,0,.06l.07,1.28"/>
            <path class="cls-4" d="M129.96,43.48c.13.1.26.21.38.31-.75-.05-1.34-.11-1.72-.14-.19-.33-.22-.44-.11-.5.12-.03.24,0,.71.15.43.14.56.18.69.15.02.01.04.03.06.04"/>
            <path class="cls-4" d="M96.97,43.38c-.54.31-.95.56-1.25.75-.06-.1-.09-.19-.12-.29.06-.04.12-.08.18-.13.06-.04.11-.1.18-.12,0,0,.41-.11,1.14-.28-.04.02-.09.05-.13.08"/>
            <path class="cls-4" d="M95.72,44.13s-.02.01-.03.02c.01,0,.02-.01.03-.02h0s0,0,0,0"/>
            <path class="cls-4" d="M95.69,44.15h0s.03-.02.03-.02l-.03.02"/>
            <path class="cls-4" d="M95.69,44.15h0s.02-.01.03-.02h0s-.03.02-.03.02"/>
            <path class="cls-4" d="M127.28,64.15c-.33.15-.6.41-.98.45-.05,0-.1,0-.14,0-1.06-.19-1.89-.34-2.77-.29-.56.04-.88.11-1.39.29-.14.05-.21.05-.27.06-.01,0-.01,0-.01,0-.53.01-.66-.47-.64-.71q.02-.21.96-2.72c.53.52.96.94,1.48,1.43.04-.15.08-.29.12-.44q2.74.93,2.82.97t.83.96s0,0,0,0"/>
          </g>
        </g>
      </g>
    </g>
  </g>
</svg>