<?xml version="1.0" encoding="UTF-8"?>
<svg id="Calque_1" data-name="Calque 1" xmlns="http://www.w3.org/2000/svg" viewBox="0 0 800 566.67">
  <defs>
    <style>
      .cls-1 {
        fill: #c82e30;
        fill-rule: evenodd;
      }
    </style>
  </defs>
  <g id="Icons">
    <g id="Color-">
      <path id="Youtube" class="cls-1" d="M317.4,387.83l-.03-226.37,216.15,113.58-216.12,112.79ZM792,122.24s-7.82-55.52-31.8-79.96c-30.43-32.1-64.53-32.25-80.15-34.12C568.1,0,400.17,0,400.17,0h-.35S231.9,0,119.95,8.16c-15.65,1.86-49.73,2.01-80.18,34.12C15.8,66.72,8,122.24,8,122.24c0,0-8,65.21-8,130.39v61.13c0,65.21,8,130.39,8,130.39,0,0,7.8,55.52,31.78,79.96,30.45,32.1,70.42,31.09,88.22,34.44,64,6.19,272,8.11,272,8.11,0,0,168.1-.25,280.05-8.41,15.62-1.89,49.73-2.04,80.15-34.14,23.98-24.45,31.8-79.96,31.8-79.96,0,0,8-65.18,8-130.39v-61.13c0-65.18-8-130.39-8-130.39h0Z"/>
    </g>
  </g>
</svg>